<?xml version="1.0" standalone="no"?>
<!DOCTYPE svg PUBLIC "-//W3C//DTD SVG 20010904//EN"
 "http://www.w3.org/TR/2001/REC-SVG-20010904/DTD/svg10.dtd">
<svg version="1.0" xmlns="http://www.w3.org/2000/svg"
 width="512.000000pt" height="512.000000pt" viewBox="0 0 512.000000 512.000000"
 preserveAspectRatio="xMidYMid meet">
<metadata>
Created by potrace 1.14, written by Peter Selinger 2001-2017
</metadata>
<g transform="translate(0.000000,512.000000) scale(0.100000,-0.100000)"
fill="#000000" stroke="none">
<path d="M1108 5114 c-2 -1 -34 -5 -73 -9 -381 -38 -730 -313 -964 -758 -57
-107 -63 -144 -65 -367 -2 -131 1 -176 20 -305 16 -109 58 -249 112 -367 64
-141 113 -201 397 -482 695 -688 792 -784 815 -814 32 -42 167 -142 302 -225
84 -52 126 -71 200 -90 87 -23 147 -36 193 -42 11 -2 45 -6 75 -10 79 -11 282
-13 359 -3 70 9 264 54 290 68 9 5 54 26 101 48 47 22 106 55 132 74 122 88
220 210 233 291 4 23 9 50 10 59 4 20 -17 105 -35 138 -25 48 -136 129 -220
161 -61 23 -140 25 -181 4 -16 -9 -48 -36 -71 -61 -75 -82 -212 -166 -303
-189 -69 -16 -83 -18 -155 -18 -95 1 -183 23 -287 74 -92 44 -96 48 -503 469
-129 134 -262 271 -295 305 -309 319 -511 529 -516 539 -4 6 -14 44 -23 83
-49 217 -39 426 25 530 12 19 46 50 75 69 28 18 54 37 56 42 6 16 99 81 144
101 156 69 364 39 570 -83 40 -23 153 -127 349 -321 160 -157 297 -293 306
-301 14 -13 25 -12 90 5 106 29 293 69 369 78 36 4 124 8 195 8 101 -1 139 -4
169 -18 l39 -17 -19 21 c-20 23 -408 408 -739 735 -110 108 -226 219 -258 246
-204 170 -454 287 -697 325 -31 5 -218 11 -222 7z"/>
<path d="M2720 3493 c-165 -23 -286 -51 -375 -86 -68 -27 -275 -136 -347 -182
-99 -65 -138 -133 -144 -256 -6 -144 75 -274 209 -334 111 -50 190 -38 287 42
128 106 293 165 453 162 78 -2 181 -17 242 -36 19 -5 145 -129 951 -930 336
-334 373 -374 403 -436 84 -175 77 -345 -20 -528 -61 -114 -138 -170 -314
-231 -81 -27 -238 -33 -319 -12 -133 35 -156 53 -508 402 -198 196 -336 326
-346 325 -9 -1 -71 -18 -137 -38 -66 -19 -129 -37 -140 -40 -280 -58 -451 -67
-560 -30 -23 8 114 -126 415 -405 25 -23 99 -92 165 -154 66 -63 138 -130 160
-151 43 -40 291 -273 309 -291 17 -16 152 -93 194 -111 20 -8 60 -25 87 -38
113 -51 303 -104 440 -124 107 -15 336 -6 425 17 181 46 327 130 462 264 127
125 188 209 269 370 26 52 50 104 54 118 0 3 11 35 23 71 13 37 25 80 29 95
35 181 37 364 4 512 -38 171 -140 391 -215 464 -7 7 -268 265 -580 573 -766
757 -777 767 -839 808 -115 77 -298 154 -407 172 -25 4 -54 9 -65 12 -28 5
-234 11 -265 6z"/>
</g>
</svg>
